<svg width="24" height="24" viewBox="0 0 24 24" fill="none" xmlns="http://www.w3.org/2000/svg">
<path d="M5 22C4.45 22 3.979 21.804 3.587 21.412C3.195 21.02 2.99934 20.5493 3 20V6C3 5.45 3.196 4.979 3.588 4.587C3.98 4.195 4.45067 3.99933 5 4H6V2.975C6 2.69167 6.096 2.45833 6.288 2.275C6.48 2.09167 6.71734 2 7 2C7.28334 2 7.521 2.096 7.713 2.288C7.905 2.48 8.00067 2.71733 8 3V4H16V2.975C16 2.69167 16.096 2.45833 16.288 2.275C16.48 2.09167 16.7173 2 17 2C17.2833 2 17.521 2.096 17.713 2.288C17.905 2.48 18.0007 2.71733 18 3V4H19C19.55 4 20.021 4.196 20.413 4.588C20.805 4.98 21.0007 5.45067 21 6V20C21 20.55 20.804 21.021 20.412 21.413C20.02 21.805 19.5493 22.0007 19 22H5ZM5 20H19V10H5V20Z" fill="#F9FCFF"/>
</svg>
