<svg width="26" height="26" viewBox="0 0 26 26" fill="none" xmlns="http://www.w3.org/2000/svg">
<path fill-rule="evenodd" clip-rule="evenodd" d="M13.0001 22.7501C18.3848 22.7501 22.7501 18.3848 22.7501 13.0001C22.7501 7.61537 18.3848 3.25008 13.0001 3.25008C7.61537 3.25008 3.25008 7.61537 3.25008 13.0001C3.25008 18.3848 7.61537 22.7501 13.0001 22.7501ZM13.0001 23.8334C18.9833 23.8334 23.8334 18.9833 23.8334 13.0001C23.8334 7.01683 18.9833 2.16675 13.0001 2.16675C7.01683 2.16675 2.16675 7.01683 2.16675 13.0001C2.16675 18.9833 7.01683 23.8334 13.0001 23.8334Z" fill="#F9FCFF"/>
<path d="M6.5 19.2997C6.5 18.7402 6.91817 18.2673 7.475 18.2055C11.654 17.743 14.365 17.7847 18.5347 18.2158C18.743 18.2377 18.9403 18.3197 19.1027 18.4519C19.2651 18.5841 19.3854 18.7607 19.4491 18.9601C19.5127 19.1596 19.5169 19.3733 19.4611 19.5751C19.4053 19.7769 19.292 19.9581 19.1349 20.0965C14.2139 24.386 11.4015 24.3269 6.84667 20.1008C6.62458 19.895 6.5 19.602 6.5 19.2997Z" fill="#F9FCFF"/>
<path fill-rule="evenodd" clip-rule="evenodd" d="M18.4791 18.7542C14.3424 18.3263 11.6704 18.2862 7.53421 18.7439C7.39806 18.7598 7.27254 18.8253 7.18169 18.9279C7.09084 19.0306 7.04104 19.1631 7.04183 19.3002C7.04183 19.4551 7.10629 19.6019 7.21517 19.7037C9.47283 21.7978 11.1834 22.7441 12.8555 22.7501C14.5336 22.756 16.3363 21.8173 18.7792 19.6886C18.8568 19.6195 18.9127 19.5294 18.94 19.4291C18.9674 19.3289 18.965 19.2229 18.9332 19.1239C18.9014 19.025 18.8416 18.9375 18.761 18.8719C18.6804 18.8064 18.5824 18.7651 18.4791 18.7542ZM7.41558 17.6671C11.6384 17.1996 14.389 17.2419 18.5912 17.6768C18.9045 17.7095 19.2014 17.8328 19.4457 18.0317C19.6899 18.2305 19.8709 18.4963 19.9664 18.7964C20.0619 19.0965 20.0679 19.4179 19.9835 19.7214C19.8992 20.0248 19.7282 20.2971 19.4915 20.5049C17.0134 22.665 14.9496 23.8415 12.8523 23.8334C10.749 23.8258 8.77625 22.6293 6.47904 20.4978C6.31457 20.3446 6.18345 20.1591 6.09388 19.953C6.00432 19.7468 5.95823 19.5244 5.9585 19.2996C5.95771 18.8958 6.10594 18.5059 6.3748 18.2045C6.64367 17.9032 7.01425 17.7121 7.41558 17.6671Z" fill="#F9FCFF"/>
<path d="M17.3334 10.8333C17.3334 11.9826 16.8769 13.0848 16.0642 13.8975C15.2516 14.7101 14.1494 15.1667 13.0001 15.1667C11.8508 15.1667 10.7486 14.7101 9.93595 13.8975C9.12329 13.0848 8.66675 11.9826 8.66675 10.8333C8.66675 9.68406 9.12329 8.58186 9.93595 7.7692C10.7486 6.95655 11.8508 6.5 13.0001 6.5C14.1494 6.5 15.2516 6.95655 16.0642 7.7692C16.8769 8.58186 17.3334 9.68406 17.3334 10.8333Z" fill="#F9FCFF"/>
<path fill-rule="evenodd" clip-rule="evenodd" d="M13.0001 14.0833C13.862 14.0833 14.6887 13.7409 15.2982 13.1314C15.9077 12.5219 16.2501 11.6953 16.2501 10.8333C16.2501 9.97138 15.9077 9.14473 15.2982 8.53524C14.6887 7.92574 13.862 7.58333 13.0001 7.58333C12.1381 7.58333 11.3115 7.92574 10.702 8.53524C10.0925 9.14473 9.75008 9.97138 9.75008 10.8333C9.75008 11.6953 10.0925 12.5219 10.702 13.1314C11.3115 13.7409 12.1381 14.0833 13.0001 14.0833ZM13.0001 15.1667C14.1494 15.1667 15.2516 14.7101 16.0642 13.8975C16.8769 13.0848 17.3334 11.9826 17.3334 10.8333C17.3334 9.68406 16.8769 8.58186 16.0642 7.7692C15.2516 6.95655 14.1494 6.5 13.0001 6.5C11.8508 6.5 10.7486 6.95655 9.93595 7.7692C9.12329 8.58186 8.66675 9.68406 8.66675 10.8333C8.66675 11.9826 9.12329 13.0848 9.93595 13.8975C10.7486 14.7101 11.8508 15.1667 13.0001 15.1667Z" fill="#F9FCFF"/>
</svg>
