<svg width="43" height="43" viewBox="0 0 43 43" fill="none" xmlns="http://www.w3.org/2000/svg">
<path d="M42.9887 21.4538C42.9887 22.9652 41.8688 24.1492 40.5996 24.1492H38.2105L38.2628 37.6009C38.2777 40.5817 36.135 43 33.4846 43H9.56384C6.92837 43 4.78565 40.5901 4.78565 37.626V24.1492H2.38909C1.04523 24.1492 0 22.9736 0 21.4538C0 20.6981 0.223977 20.0264 0.746591 19.4386L19.8892 0.671744C20.4118 0.083968 21.0091 0 21.5317 0C22.0543 0 22.6516 0.167936 23.0995 0.587776L31.0582 8.45557V5.37395C31.0582 3.88772 32.1258 2.68698 33.4473 2.68698H35.8364C37.1578 2.68698 38.2255 3.88772 38.2255 5.37395V15.5341L42.1675 19.4302C42.7648 20.018 43.0634 20.6897 42.9887 21.4454V21.4538ZM18.5155 16.1219C17.5225 16.1219 16.7236 17.0203 16.7236 18.1371V24.8545C16.7236 25.9713 17.5225 26.8698 18.5155 26.8698H24.4882C25.4812 26.8698 26.28 25.9713 26.28 24.8545V18.1371C26.28 17.0203 25.4812 16.1219 24.4882 16.1219H18.5155Z" fill="#0054BA"/>
</svg>
