<svg width="194" height="71" viewBox="0 0 194 71" fill="none" xmlns="http://www.w3.org/2000/svg">
<path d="M11.2 57.75C10.4 57.75 9.56667 57.6667 8.7 57.5C7.83333 57.3333 6.98333 57.1 6.15 56.8C5.35 56.4667 4.63333 56.0833 4 55.65C3.4 55.2167 2.95 54.7333 2.65 54.2C2.48333 53.8667 2.38333 53.5667 2.35 53.3C2.31667 53 2.36667 52.7167 2.5 52.45C2.63333 52.1833 2.83333 51.9167 3.1 51.65C3.43333 51.25 3.76667 51.0667 4.1 51.1C4.43333 51.1 4.85 51.3167 5.35 51.75C5.71667 51.9833 6.15 52.25 6.65 52.55C7.15 52.8167 7.66667 53.0667 8.2 53.3C8.73333 53.5 9.26667 53.6833 9.8 53.85C10.3667 53.9833 10.9167 54.05 11.45 54.05C12.9833 54.05 14.2167 53.7667 15.15 53.2C16.0833 52.6 16.55 51.8167 16.55 50.85C16.55 50.2833 16.4333 49.8 16.2 49.4C15.9667 49 15.65 48.6667 15.25 48.4C14.85 48.1 14.4 47.85 13.9 47.65C13.4 47.45 12.8333 47.2667 12.2 47.1C11.6 46.9 11 46.7167 10.4 46.55C9.5 46.3167 8.61667 46.05 7.75 45.75C6.88333 45.45 6.1 45.0667 5.4 44.6C4.7 44.1 4.13333 43.4833 3.7 42.75C3.26667 41.9833 3.05 41.0167 3.05 39.85C3.05 38.4833 3.4 37.3 4.1 36.3C4.8 35.3 5.78333 34.5333 7.05 34C8.31667 33.4333 9.8 33.15 11.5 33.15C12.2333 33.15 12.9167 33.2 13.55 33.3C14.1833 33.4 14.7833 33.5667 15.35 33.8C15.95 34 16.5167 34.25 17.05 34.55C17.5833 34.8167 18.1 35.15 18.6 35.55C19.2 35.95 19.5167 36.3833 19.55 36.85C19.5833 37.3167 19.4 37.8 19 38.3C18.7 38.7333 18.3667 39.0167 18 39.15C17.6333 39.25 17.2667 39.15 16.9 38.85C16.3667 38.45 15.8 38.1 15.2 37.8C14.6 37.5 13.9833 37.25 13.35 37.05C12.7167 36.85 12.0667 36.75 11.4 36.75C10.5667 36.75 9.81667 36.8833 9.15 37.15C8.51667 37.3833 8.01667 37.75 7.65 38.25C7.31667 38.7167 7.15 39.25 7.15 39.85C7.15 40.3833 7.28333 40.8167 7.55 41.15C7.85 41.4833 8.21667 41.7667 8.65 42C9.11667 42.2333 9.65 42.45 10.25 42.65C10.8833 42.8167 11.5333 42.9833 12.2 43.15C13.1667 43.3833 14.15 43.6667 15.15 44C16.1833 44.3 17.1 44.7167 17.9 45.25C18.7333 45.75 19.4 46.4333 19.9 47.3C20.4333 48.1333 20.7 49.25 20.7 50.65C20.7 52.85 19.8333 54.5833 18.1 55.85C16.3667 57.1167 14.0667 57.75 11.2 57.75ZM46.1992 57.45C45.4659 57.45 44.9326 57.3 44.5992 57C44.2992 56.7 44.1159 56.2333 44.0492 55.6L44.2492 53.1C43.9159 53.6333 43.3992 54.25 42.6992 54.95C41.9992 55.6167 41.0826 56.2167 39.9492 56.75C38.8159 57.25 37.4326 57.5 35.7992 57.5C34.1992 57.5 32.6992 57.1833 31.2992 56.55C29.9326 55.9167 28.7159 55.0333 27.6492 53.9C26.6159 52.7667 25.7992 51.4667 25.1992 50C24.6326 48.5333 24.3492 46.9667 24.3492 45.3C24.3492 43.6667 24.6326 42.1333 25.1992 40.7C25.7992 39.2333 26.6326 37.95 27.6992 36.85C28.7659 35.75 29.9826 34.8833 31.3492 34.25C32.7492 33.6167 34.2326 33.3 35.7992 33.3C37.2659 33.3 38.5159 33.5 39.5492 33.9C40.5826 34.2667 41.4659 34.7667 42.1992 35.4C42.9659 36 43.6326 36.6833 44.1992 37.45L44.0992 35.35C44.0659 34.6167 44.2159 34.1 44.5492 33.8C44.9159 33.4667 45.4826 33.3 46.2492 33.3C46.8826 33.3 47.3326 33.4 47.5992 33.6C47.8992 33.8 48.0992 34.0833 48.1992 34.45C48.2992 34.8167 48.3492 35.2667 48.3492 35.8V55.1C48.3492 55.5667 48.2992 55.9833 48.1992 56.35C48.0992 56.7167 47.8992 56.9833 47.5992 57.15C47.2992 57.35 46.8326 57.45 46.1992 57.45ZM36.5492 53.3C37.8826 53.3 39.0992 52.95 40.1992 52.25C41.3326 51.55 42.2159 50.6167 42.8492 49.45C43.5159 48.25 43.8492 46.8833 43.8492 45.35C43.8492 43.7833 43.4992 42.4167 42.7992 41.25C42.1326 40.05 41.2326 39.1167 40.0992 38.45C38.9992 37.75 37.7826 37.4 36.4492 37.4C34.8826 37.4 33.5159 37.7667 32.3492 38.5C31.2159 39.2 30.3159 40.15 29.6492 41.35C28.9826 42.55 28.6492 43.9167 28.6492 45.45C28.6492 46.95 28.9826 48.3 29.6492 49.5C30.3159 50.6667 31.2326 51.6 32.3992 52.3C33.5992 52.9667 34.9826 53.3 36.5492 53.3ZM66.0602 57.3C64.4268 57.3 62.9435 57 61.6102 56.4C60.2768 55.8 59.1435 54.9667 58.2102 53.9C57.2768 52.8 56.5435 51.5167 56.0102 50.05C55.5102 48.5833 55.2768 46.9667 55.3102 45.2C55.3102 43.4667 55.5602 41.8667 56.0602 40.4C56.5602 38.9333 57.2768 37.6667 58.2102 36.6C59.1768 35.5 60.3102 34.6667 61.6102 34.1C62.9435 33.5 64.4268 33.2 66.0602 33.2C67.5935 33.2 69.0268 33.5 70.3602 34.1C71.7268 34.7 72.9102 35.55 73.9102 36.65C74.9435 37.7167 75.7435 39 76.3102 40.5C76.9102 42 77.2102 43.6167 77.2102 45.35C77.2102 47.0833 76.9102 48.6833 76.3102 50.15C75.7435 51.6167 74.9435 52.8833 73.9102 53.95C72.9102 55.0167 71.7268 55.85 70.3602 56.45C69.0268 57.0167 67.5935 57.3 66.0602 57.3ZM55.6602 67.35C55.0268 67.35 54.5435 67.25 54.2102 67.05C53.9102 66.8833 53.6935 66.6333 53.5602 66.3C53.4602 65.9667 53.4102 65.5667 53.4102 65.1V35.55C53.4102 35.0833 53.4602 34.6833 53.5602 34.35C53.6602 34.0167 53.8602 33.7667 54.1602 33.6C54.4935 33.4 54.9768 33.3 55.6102 33.3C56.3435 33.3 56.8768 33.4167 57.2102 33.65C57.5768 33.8833 57.7935 34.3 57.8602 34.9V65.05C57.8935 65.5167 57.8602 65.9167 57.7602 66.25C57.6602 66.6167 57.4435 66.8833 57.1102 67.05C56.8102 67.25 56.3268 67.35 55.6602 67.35ZM65.4102 53.2C66.8102 53.2 68.0768 52.8667 69.2102 52.2C70.3435 51.5 71.2268 50.55 71.8602 49.35C72.5268 48.15 72.8602 46.7833 72.8602 45.25C72.8602 43.6833 72.5268 42.3167 71.8602 41.15C71.2268 39.9833 70.3435 39.0833 69.2102 38.45C68.1102 37.7833 66.8435 37.45 65.4102 37.45C64.0102 37.45 62.7435 37.7833 61.6102 38.45C60.5102 39.1167 59.6268 40.0333 58.9602 41.2C58.3268 42.3667 58.0102 43.7167 58.0102 45.25C58.0102 46.7833 58.3268 48.15 58.9602 49.35C59.6268 50.55 60.5102 51.5 61.6102 52.2C62.7435 52.8667 64.0102 53.2 65.4102 53.2ZM94.2711 57.3C92.6378 57.3 91.1544 57 89.8211 56.4C88.4878 55.8 87.3544 54.9667 86.4211 53.9C85.4878 52.8 84.7544 51.5167 84.2211 50.05C83.7211 48.5833 83.4878 46.9667 83.5211 45.2C83.5211 43.4667 83.7711 41.8667 84.2711 40.4C84.7711 38.9333 85.4878 37.6667 86.4211 36.6C87.3878 35.5 88.5211 34.6667 89.8211 34.1C91.1544 33.5 92.6378 33.2 94.2711 33.2C95.8044 33.2 97.2378 33.5 98.5711 34.1C99.9378 34.7 101.121 35.55 102.121 36.65C103.154 37.7167 103.954 39 104.521 40.5C105.121 42 105.421 43.6167 105.421 45.35C105.421 47.0833 105.121 48.6833 104.521 50.15C103.954 51.6167 103.154 52.8833 102.121 53.95C101.121 55.0167 99.9378 55.85 98.5711 56.45C97.2378 57.0167 95.8044 57.3 94.2711 57.3ZM83.8711 67.35C83.2378 67.35 82.7544 67.25 82.4211 67.05C82.1211 66.8833 81.9044 66.6333 81.7711 66.3C81.6711 65.9667 81.6211 65.5667 81.6211 65.1V35.55C81.6211 35.0833 81.6711 34.6833 81.7711 34.35C81.8711 34.0167 82.0711 33.7667 82.3711 33.6C82.7044 33.4 83.1878 33.3 83.8211 33.3C84.5544 33.3 85.0878 33.4167 85.4211 33.65C85.7878 33.8833 86.0044 34.3 86.0711 34.9V65.05C86.1044 65.5167 86.0711 65.9167 85.9711 66.25C85.8711 66.6167 85.6544 66.8833 85.3211 67.05C85.0211 67.25 84.5378 67.35 83.8711 67.35ZM93.6211 53.2C95.0211 53.2 96.2878 52.8667 97.4211 52.2C98.5544 51.5 99.4378 50.55 100.071 49.35C100.738 48.15 101.071 46.7833 101.071 45.25C101.071 43.6833 100.738 42.3167 100.071 41.15C99.4378 39.9833 98.5544 39.0833 97.4211 38.45C96.3211 37.7833 95.0544 37.45 93.6211 37.45C92.2211 37.45 90.9544 37.7833 89.8211 38.45C88.7211 39.1167 87.8378 40.0333 87.1711 41.2C86.5378 42.3667 86.2211 43.7167 86.2211 45.25C86.2211 46.7833 86.5378 48.15 87.1711 49.35C87.8378 50.55 88.7211 51.5 89.8211 52.2C90.9544 52.8667 92.2211 53.2 93.6211 53.2ZM112.082 57.5C111.449 57.5 110.965 57.4 110.632 57.2C110.299 57.0333 110.082 56.7833 109.982 56.45C109.915 56.0833 109.882 55.6667 109.882 55.2V24.4C109.882 23.9333 109.932 23.5333 110.032 23.2C110.132 22.8667 110.349 22.6167 110.682 22.45C111.015 22.25 111.499 22.15 112.132 22.15C112.799 22.15 113.282 22.25 113.582 22.45C113.915 22.6167 114.115 22.8667 114.182 23.2C114.282 23.5333 114.332 23.95 114.332 24.45V36.8C115.132 35.8667 116.099 35.0333 117.232 34.3C118.399 33.5667 119.815 33.2 121.482 33.2C123.449 33.2 125.199 33.6667 126.732 34.6C128.299 35.5 129.532 36.7833 130.432 38.45C131.365 40.1167 131.832 42.1 131.832 44.4V55.25C131.832 55.7167 131.782 56.1167 131.682 56.45C131.582 56.7833 131.382 57.0333 131.082 57.2C130.782 57.4 130.299 57.5 129.632 57.5C128.999 57.5 128.515 57.4 128.182 57.2C127.849 57.0333 127.632 56.7833 127.532 56.45C127.432 56.0833 127.382 55.6667 127.382 55.2V44.35C127.382 42.95 127.149 41.7333 126.682 40.7C126.215 39.6667 125.515 38.8667 124.582 38.3C123.682 37.7333 122.532 37.45 121.132 37.45C119.232 37.45 117.665 38 116.432 39.1C115.232 40.1667 114.532 41.6 114.332 43.4V55.25C114.332 55.7167 114.282 56.1167 114.182 56.45C114.082 56.7833 113.865 57.0333 113.532 57.2C113.232 57.4 112.749 57.5 112.082 57.5ZM138.94 57.5C138.307 57.5 137.823 57.4 137.49 57.2C137.19 57.0333 136.99 56.7833 136.89 56.45C136.79 56.1167 136.74 55.7167 136.74 55.25V35.5C136.74 35.0333 136.79 34.6333 136.89 34.3C136.99 33.9667 137.19 33.7167 137.49 33.55C137.823 33.3833 138.323 33.3 138.99 33.3C139.623 33.3 140.09 33.4 140.39 33.6C140.69 33.7667 140.89 34.0167 140.99 34.35C141.09 34.6833 141.14 35.1 141.14 35.6V55.3C141.14 55.7667 141.09 56.1667 140.99 56.5C140.89 56.8333 140.673 57.0833 140.34 57.25C140.04 57.4167 139.573 57.5 138.94 57.5ZM138.94 27.3C138.207 27.3 137.657 27.2 137.29 27C136.923 26.7667 136.673 26.45 136.54 26.05C136.44 25.65 136.39 25.1833 136.39 24.65C136.39 24.1167 136.457 23.6667 136.59 23.3C136.723 22.9 136.973 22.6167 137.34 22.45C137.707 22.25 138.257 22.15 138.99 22.15C139.69 22.15 140.223 22.25 140.59 22.45C140.957 22.65 141.19 22.95 141.29 23.35C141.423 23.75 141.49 24.2167 141.49 24.75C141.49 25.2833 141.423 25.75 141.29 26.15C141.19 26.5167 140.957 26.8 140.59 27C140.223 27.2 139.673 27.3 138.94 27.3ZM149.371 57.5C148.738 57.5 148.255 57.4 147.921 57.2C147.621 57.0333 147.421 56.7833 147.321 56.45C147.255 56.0833 147.221 55.6667 147.221 55.2V35.5C147.221 35 147.271 34.5833 147.371 34.25C147.471 33.9167 147.671 33.6833 147.971 33.55C148.271 33.3833 148.755 33.3 149.421 33.3C150.021 33.3 150.471 33.3833 150.771 33.55C151.105 33.6833 151.321 33.9 151.421 34.2C151.555 34.4667 151.621 34.7833 151.621 35.15L151.421 36.65C151.655 36.2167 151.921 35.7833 152.221 35.35C152.555 34.9167 152.955 34.5333 153.421 34.2C153.921 33.8333 154.505 33.5333 155.171 33.3C155.871 33.0667 156.721 32.95 157.721 32.95C158.221 32.95 158.688 33 159.121 33.1C159.588 33.1667 160.021 33.2833 160.421 33.45C160.855 33.6167 161.221 33.8167 161.521 34.05C161.821 34.25 162.055 34.4833 162.221 34.75C162.421 34.9833 162.521 35.2667 162.521 35.6C162.521 36.3333 162.288 36.9667 161.821 37.5C161.355 38 160.871 38.25 160.371 38.25C159.938 38.25 159.621 38.2 159.421 38.1C159.221 37.9667 159.021 37.8333 158.821 37.7C158.655 37.5667 158.405 37.45 158.071 37.35C157.738 37.2167 157.205 37.15 156.471 37.15C155.971 37.15 155.438 37.25 154.871 37.45C154.338 37.65 153.821 37.95 153.321 38.35C152.821 38.7167 152.405 39.2 152.071 39.8C151.771 40.4 151.621 41.1 151.621 41.9V55.3C151.621 55.7667 151.571 56.1667 151.471 56.5C151.371 56.8333 151.155 57.0833 150.821 57.25C150.521 57.4167 150.038 57.5 149.371 57.5ZM176.87 57.75C174.87 57.75 173.087 57.4167 171.52 56.75C169.954 56.0833 168.62 55.1833 167.52 54.05C166.454 52.8833 165.637 51.55 165.07 50.05C164.504 48.55 164.22 46.9333 164.22 45.2C164.22 42.9 164.754 40.85 165.82 39.05C166.887 37.25 168.354 35.8333 170.22 34.8C172.12 33.7333 174.287 33.2 176.72 33.2C178.387 33.2 179.87 33.4667 181.17 34C182.504 34.5 183.637 35.1833 184.57 36.05C185.504 36.9167 186.22 37.8833 186.72 38.95C187.22 40.0167 187.47 41.0833 187.47 42.15C187.47 43.85 187.07 45.05 186.27 45.75C185.47 46.4167 184.487 46.75 183.32 46.75H168.87C168.837 48.2167 169.22 49.4833 170.02 50.55C170.854 51.5833 171.887 52.3833 173.12 52.95C174.387 53.5167 175.654 53.8 176.92 53.8C177.854 53.8 178.654 53.75 179.32 53.65C179.987 53.55 180.57 53.4167 181.07 53.25C181.57 53.0833 182.004 52.9167 182.37 52.75C182.737 52.5833 183.054 52.4167 183.32 52.25C183.62 52.0833 183.904 51.9667 184.17 51.9C184.47 51.8333 184.754 51.8667 185.02 52C185.32 52.1 185.554 52.3167 185.72 52.65C185.92 52.9167 186.054 53.1667 186.12 53.4C186.187 53.6333 186.22 53.8833 186.22 54.15C186.22 54.6167 185.82 55.1333 185.02 55.7C184.22 56.2667 183.104 56.75 181.67 57.15C180.27 57.55 178.67 57.75 176.87 57.75ZM168.87 43.8H181.42C182.054 43.8 182.52 43.7167 182.82 43.55C183.154 43.3833 183.32 42.9333 183.32 42.2C183.32 41.2667 183.037 40.4333 182.47 39.7C181.904 38.9333 181.12 38.3167 180.12 37.85C179.154 37.3833 178.037 37.15 176.77 37.15C175.304 37.15 173.954 37.45 172.72 38.05C171.52 38.6167 170.57 39.4 169.87 40.4C169.17 41.4 168.837 42.5333 168.87 43.8Z" fill="#0054BA"/>
<g filter="url(#filter0_d_340_896)">
<path d="M138.625 9L130 20L138.625 27L147.25 20L138.625 9Z" fill="#0054BA"/>
<path d="M138.625 9L130 20L138.625 27L147.25 20L138.625 9Z" stroke="white" stroke-linecap="round" stroke-linejoin="round"/>
</g>
<path d="M138.625 9L143.417 21L138.625 27" stroke="white" stroke-linecap="round" stroke-linejoin="round"/>
<path d="M138.625 9L133.833 21L138.625 27" stroke="white" stroke-linecap="round" stroke-linejoin="round"/>
<path d="M130 20L133.833 21H143.417L147.25 20" stroke="white" stroke-linecap="round" stroke-linejoin="round"/>
<defs>
<filter id="filter0_d_340_896" x="129.5" y="8.5" width="18.25" height="21" filterUnits="userSpaceOnUse" color-interpolation-filters="sRGB">
<feFlood flood-opacity="0" result="BackgroundImageFix"/>
<feColorMatrix in="SourceAlpha" type="matrix" values="0 0 0 0 0 0 0 0 0 0 0 0 0 0 0 0 0 0 127 0" result="hardAlpha"/>
<feOffset dy="2"/>
<feComposite in2="hardAlpha" operator="out"/>
<feColorMatrix type="matrix" values="0 0 0 0 0 0 0 0 0 0.69163 0 0 0 0 1 0 0 0 1 0"/>
<feBlend mode="normal" in2="BackgroundImageFix" result="effect1_dropShadow_340_896"/>
<feBlend mode="normal" in="SourceGraphic" in2="effect1_dropShadow_340_896" result="shape"/>
</filter>
</defs>
</svg>
