<svg width="112" height="28" viewBox="0 0 112 28" fill="none" xmlns="http://www.w3.org/2000/svg">
<path d="M5.92332 21.45C5.44332 21.45 4.94332 21.4 4.42332 21.3C3.90332 21.2 3.39332 21.06 2.89332 20.88C2.41332 20.68 1.98332 20.45 1.60332 20.19C1.24332 19.93 0.97332 19.64 0.79332 19.32C0.69332 19.12 0.63332 18.94 0.61332 18.78C0.59332 18.6 0.62332 18.43 0.70332 18.27C0.78332 18.11 0.90332 17.95 1.06332 17.79C1.26332 17.55 1.46332 17.44 1.66332 17.46C1.86332 17.46 2.11332 17.59 2.41332 17.85C2.63332 17.99 2.89332 18.15 3.19332 18.33C3.49332 18.49 3.80332 18.64 4.12332 18.78C4.44332 18.9 4.76332 19.01 5.08332 19.11C5.42332 19.19 5.75332 19.23 6.07332 19.23C6.99332 19.23 7.73332 19.06 8.29332 18.72C8.85332 18.36 9.13332 17.89 9.13332 17.31C9.13332 16.97 9.06332 16.68 8.92332 16.44C8.78332 16.2 8.59332 16 8.35332 15.84C8.11332 15.66 7.84332 15.51 7.54332 15.39C7.24332 15.27 6.90332 15.16 6.52332 15.06C6.16332 14.94 5.80332 14.83 5.44332 14.73C4.90332 14.59 4.37332 14.43 3.85332 14.25C3.33332 14.07 2.86332 13.84 2.44332 13.56C2.02332 13.26 1.68332 12.89 1.42332 12.45C1.16332 11.99 1.03332 11.41 1.03332 10.71C1.03332 9.89 1.24332 9.18 1.66332 8.58C2.08332 7.98 2.67332 7.52 3.43332 7.2C4.19332 6.86 5.08332 6.69 6.10332 6.69C6.54332 6.69 6.95332 6.72 7.33332 6.78C7.71332 6.84 8.07332 6.94 8.41332 7.08C8.77332 7.2 9.11332 7.35 9.43332 7.53C9.75332 7.69 10.0633 7.89 10.3633 8.13C10.7233 8.37 10.9133 8.63 10.9333 8.91C10.9533 9.19 10.8433 9.48 10.6033 9.78C10.4233 10.04 10.2233 10.21 10.0033 10.29C9.78332 10.35 9.56332 10.29 9.34332 10.11C9.02332 9.87 8.68332 9.66 8.32332 9.48C7.96332 9.3 7.59332 9.15 7.21332 9.03C6.83332 8.91 6.44332 8.85 6.04332 8.85C5.54332 8.85 5.09332 8.93 4.69332 9.09C4.31332 9.23 4.01332 9.45 3.79332 9.75C3.59332 10.03 3.49332 10.35 3.49332 10.71C3.49332 11.03 3.57332 11.29 3.73332 11.49C3.91332 11.69 4.13332 11.86 4.39332 12C4.67332 12.14 4.99332 12.27 5.35332 12.39C5.73332 12.49 6.12332 12.59 6.52332 12.69C7.10332 12.83 7.69332 13 8.29332 13.2C8.91332 13.38 9.46332 13.63 9.94332 13.95C10.4433 14.25 10.8433 14.66 11.1433 15.18C11.4633 15.68 11.6233 16.35 11.6233 17.19C11.6233 18.51 11.1033 19.55 10.0633 20.31C9.02332 21.07 7.64332 21.45 5.92332 21.45ZM26.9229 21.27C26.4829 21.27 26.1629 21.18 25.9629 21C25.7829 20.82 25.6729 20.54 25.6329 20.16L25.7529 18.66C25.5529 18.98 25.2429 19.35 24.8229 19.77C24.4029 20.17 23.8529 20.53 23.1729 20.85C22.4929 21.15 21.6629 21.3 20.6829 21.3C19.7229 21.3 18.8229 21.11 17.9829 20.73C17.1629 20.35 16.4329 19.82 15.7929 19.14C15.1729 18.46 14.6829 17.68 14.3229 16.8C13.9829 15.92 13.8129 14.98 13.8129 13.98C13.8129 13 13.9829 12.08 14.3229 11.22C14.6829 10.34 15.1829 9.57 15.8229 8.91C16.4629 8.25 17.1929 7.73 18.0129 7.35C18.8529 6.97 19.7429 6.78 20.6829 6.78C21.5629 6.78 22.3129 6.9 22.9329 7.14C23.5529 7.36 24.0829 7.66 24.5229 8.04C24.9829 8.4 25.3829 8.81 25.7229 9.27L25.6629 8.01C25.6429 7.57 25.7329 7.26 25.9329 7.08C26.1529 6.88 26.4929 6.78 26.9529 6.78C27.3329 6.78 27.6029 6.84 27.7629 6.96C27.9429 7.08 28.0629 7.25 28.1229 7.47C28.1829 7.69 28.2129 7.96 28.2129 8.28V19.86C28.2129 20.14 28.1829 20.39 28.1229 20.61C28.0629 20.83 27.9429 20.99 27.7629 21.09C27.5829 21.21 27.3029 21.27 26.9229 21.27ZM21.1329 18.78C21.9329 18.78 22.6629 18.57 23.3229 18.15C24.0029 17.73 24.5329 17.17 24.9129 16.47C25.3129 15.75 25.5129 14.93 25.5129 14.01C25.5129 13.07 25.3029 12.25 24.8829 11.55C24.4829 10.83 23.9429 10.27 23.2629 9.87C22.6029 9.45 21.8729 9.24 21.0729 9.24C20.1329 9.24 19.3129 9.46 18.6129 9.9C17.9329 10.32 17.3929 10.89 16.9929 11.61C16.5929 12.33 16.3929 13.15 16.3929 14.07C16.3929 14.97 16.5929 15.78 16.9929 16.5C17.3929 17.2 17.9429 17.76 18.6429 18.18C19.3629 18.58 20.1929 18.78 21.1329 18.78ZM38.8394 21.18C37.8594 21.18 36.9694 21 36.1694 20.64C35.3694 20.28 34.6894 19.78 34.1294 19.14C33.5694 18.48 33.1294 17.71 32.8094 16.83C32.5094 15.95 32.3694 14.98 32.3894 13.92C32.3894 12.88 32.5394 11.92 32.8394 11.04C33.1394 10.16 33.5694 9.4 34.1294 8.76C34.7094 8.1 35.3894 7.6 36.1694 7.26C36.9694 6.9 37.8594 6.72 38.8394 6.72C39.7594 6.72 40.6194 6.9 41.4194 7.26C42.2394 7.62 42.9494 8.13 43.5494 8.79C44.1694 9.43 44.6494 10.2 44.9894 11.1C45.3494 12 45.5294 12.97 45.5294 14.01C45.5294 15.05 45.3494 16.01 44.9894 16.89C44.6494 17.77 44.1694 18.53 43.5494 19.17C42.9494 19.81 42.2394 20.31 41.4194 20.67C40.6194 21.01 39.7594 21.18 38.8394 21.18ZM32.5994 27.21C32.2194 27.21 31.9294 27.15 31.7294 27.03C31.5494 26.93 31.4194 26.78 31.3394 26.58C31.2794 26.38 31.2494 26.14 31.2494 25.86V8.13C31.2494 7.85 31.2794 7.61 31.3394 7.41C31.3994 7.21 31.5194 7.06 31.6994 6.96C31.8994 6.84 32.1894 6.78 32.5694 6.78C33.0094 6.78 33.3294 6.85 33.5294 6.99C33.7494 7.13 33.8794 7.38 33.9194 7.74V25.83C33.9394 26.11 33.9194 26.35 33.8594 26.55C33.7994 26.77 33.6694 26.93 33.4694 27.03C33.2894 27.15 32.9994 27.21 32.5994 27.21ZM38.4494 18.72C39.2894 18.72 40.0494 18.52 40.7294 18.12C41.4094 17.7 41.9394 17.13 42.3194 16.41C42.7194 15.69 42.9194 14.87 42.9194 13.95C42.9194 13.01 42.7194 12.19 42.3194 11.49C41.9394 10.79 41.4094 10.25 40.7294 9.87C40.0694 9.47 39.3094 9.27 38.4494 9.27C37.6094 9.27 36.8494 9.47 36.1694 9.87C35.5094 10.27 34.9794 10.82 34.5794 11.52C34.1994 12.22 34.0094 13.03 34.0094 13.95C34.0094 14.87 34.1994 15.69 34.5794 16.41C34.9794 17.13 35.5094 17.7 36.1694 18.12C36.8494 18.52 37.6094 18.72 38.4494 18.72ZM55.766 21.18C54.786 21.18 53.896 21 53.096 20.64C52.296 20.28 51.616 19.78 51.056 19.14C50.496 18.48 50.056 17.71 49.736 16.83C49.436 15.95 49.296 14.98 49.316 13.92C49.316 12.88 49.466 11.92 49.766 11.04C50.066 10.16 50.496 9.4 51.056 8.76C51.636 8.1 52.316 7.6 53.096 7.26C53.896 6.9 54.786 6.72 55.766 6.72C56.686 6.72 57.546 6.9 58.346 7.26C59.166 7.62 59.876 8.13 60.476 8.79C61.096 9.43 61.576 10.2 61.916 11.1C62.276 12 62.456 12.97 62.456 14.01C62.456 15.05 62.276 16.01 61.916 16.89C61.576 17.77 61.096 18.53 60.476 19.17C59.876 19.81 59.166 20.31 58.346 20.67C57.546 21.01 56.686 21.18 55.766 21.18ZM49.526 27.21C49.146 27.21 48.856 27.15 48.656 27.03C48.476 26.93 48.346 26.78 48.266 26.58C48.206 26.38 48.176 26.14 48.176 25.86V8.13C48.176 7.85 48.206 7.61 48.266 7.41C48.326 7.21 48.446 7.06 48.626 6.96C48.826 6.84 49.116 6.78 49.496 6.78C49.936 6.78 50.256 6.85 50.456 6.99C50.676 7.13 50.806 7.38 50.846 7.74V25.83C50.866 26.11 50.846 26.35 50.786 26.55C50.726 26.77 50.596 26.93 50.396 27.03C50.216 27.15 49.926 27.21 49.526 27.21ZM55.376 18.72C56.216 18.72 56.976 18.52 57.656 18.12C58.336 17.7 58.866 17.13 59.246 16.41C59.646 15.69 59.846 14.87 59.846 13.95C59.846 13.01 59.646 12.19 59.246 11.49C58.866 10.79 58.336 10.25 57.656 9.87C56.996 9.47 56.236 9.27 55.376 9.27C54.536 9.27 53.776 9.47 53.096 9.87C52.436 10.27 51.906 10.82 51.506 11.52C51.126 12.22 50.936 13.03 50.936 13.95C50.936 14.87 51.126 15.69 51.506 16.41C51.906 17.13 52.436 17.7 53.096 18.12C53.776 18.52 54.536 18.72 55.376 18.72ZM66.4525 21.3C66.0725 21.3 65.7825 21.24 65.5825 21.12C65.3825 21.02 65.2525 20.87 65.1925 20.67C65.1525 20.45 65.1325 20.2 65.1325 19.92V1.44C65.1325 1.16 65.1625 0.919999 65.2225 0.719998C65.2825 0.519998 65.4125 0.369999 65.6125 0.269999C65.8125 0.149999 66.1025 0.0899992 66.4825 0.0899992C66.8825 0.0899992 67.1725 0.149999 67.3525 0.269999C67.5525 0.369999 67.6725 0.519998 67.7125 0.719998C67.7725 0.919999 67.8025 1.17 67.8025 1.47V8.88C68.2825 8.32 68.8625 7.82 69.5425 7.38C70.2425 6.94 71.0925 6.72 72.0925 6.72C73.2725 6.72 74.3225 7 75.2425 7.56C76.1825 8.1 76.9225 8.87 77.4625 9.87C78.0225 10.87 78.3025 12.06 78.3025 13.44V19.95C78.3025 20.23 78.2725 20.47 78.2125 20.67C78.1525 20.87 78.0325 21.02 77.8525 21.12C77.6725 21.24 77.3825 21.3 76.9825 21.3C76.6025 21.3 76.3125 21.24 76.1125 21.12C75.9125 21.02 75.7825 20.87 75.7225 20.67C75.6625 20.45 75.6325 20.2 75.6325 19.92V13.41C75.6325 12.57 75.4925 11.84 75.2125 11.22C74.9325 10.6 74.5125 10.12 73.9525 9.78C73.4125 9.44 72.7225 9.27 71.8825 9.27C70.7425 9.27 69.8025 9.6 69.0625 10.26C68.3425 10.9 67.9225 11.76 67.8025 12.84V19.95C67.8025 20.23 67.7725 20.47 67.7125 20.67C67.6525 20.87 67.5225 21.02 67.3225 21.12C67.1425 21.24 66.8525 21.3 66.4525 21.3ZM82.5672 21.3C82.1872 21.3 81.8972 21.24 81.6972 21.12C81.5172 21.02 81.3972 20.87 81.3372 20.67C81.2772 20.47 81.2472 20.23 81.2472 19.95V8.1C81.2472 7.82 81.2772 7.58 81.3372 7.38C81.3972 7.18 81.5172 7.03 81.6972 6.93C81.8972 6.83 82.1972 6.78 82.5972 6.78C82.9772 6.78 83.2572 6.84 83.4372 6.96C83.6172 7.06 83.7372 7.21 83.7972 7.41C83.8572 7.61 83.8872 7.86 83.8872 8.16V19.98C83.8872 20.26 83.8572 20.5 83.7972 20.7C83.7372 20.9 83.6072 21.05 83.4072 21.15C83.2272 21.25 82.9472 21.3 82.5672 21.3ZM82.5672 3.18C82.1272 3.18 81.7972 3.12 81.5772 3C81.3572 2.86 81.2072 2.67 81.1272 2.43C81.0672 2.19 81.0372 1.91 81.0372 1.59C81.0372 1.27 81.0772 0.999999 81.1572 0.779999C81.2372 0.539999 81.3872 0.369999 81.6072 0.269999C81.8272 0.149999 82.1572 0.0899992 82.5972 0.0899992C83.0172 0.0899992 83.3372 0.149999 83.5572 0.269999C83.7772 0.389998 83.9172 0.569998 83.9772 0.809999C84.0572 1.05 84.0972 1.33 84.0972 1.65C84.0972 1.97 84.0572 2.25 83.9772 2.49C83.9172 2.71 83.7772 2.88 83.5572 3C83.3372 3.12 83.0072 3.18 82.5672 3.18ZM88.8262 21.3C88.4462 21.3 88.1562 21.24 87.9562 21.12C87.7762 21.02 87.6562 20.87 87.5962 20.67C87.5562 20.45 87.5362 20.2 87.5362 19.92V8.1C87.5362 7.8 87.5662 7.55 87.6262 7.35C87.6862 7.15 87.8062 7.01 87.9862 6.93C88.1662 6.83 88.4562 6.78 88.8562 6.78C89.2162 6.78 89.4862 6.83 89.6662 6.93C89.8662 7.01 89.9962 7.14 90.0562 7.32C90.1362 7.48 90.1762 7.67 90.1762 7.89L90.0562 8.79C90.1962 8.53 90.3562 8.27 90.5362 8.01C90.7362 7.75 90.9762 7.52 91.2562 7.32C91.5562 7.1 91.9062 6.92 92.3062 6.78C92.7262 6.64 93.2362 6.57 93.8362 6.57C94.1362 6.57 94.4162 6.6 94.6762 6.66C94.9562 6.7 95.2162 6.77 95.4562 6.87C95.7162 6.97 95.9362 7.09 96.1162 7.23C96.2962 7.35 96.4362 7.49 96.5362 7.65C96.6562 7.79 96.7162 7.96 96.7162 8.16C96.7162 8.6 96.5762 8.98 96.2962 9.3C96.0162 9.6 95.7262 9.75 95.4262 9.75C95.1662 9.75 94.9762 9.72 94.8562 9.66C94.7362 9.58 94.6162 9.5 94.4962 9.42C94.3962 9.34 94.2462 9.27 94.0462 9.21C93.8462 9.13 93.5262 9.09 93.0862 9.09C92.7862 9.09 92.4662 9.15 92.1262 9.27C91.8062 9.39 91.4962 9.57 91.1962 9.81C90.8962 10.03 90.6462 10.32 90.4462 10.68C90.2662 11.04 90.1762 11.46 90.1762 11.94V19.98C90.1762 20.26 90.1462 20.5 90.0862 20.7C90.0262 20.9 89.8962 21.05 89.6962 21.15C89.5162 21.25 89.2262 21.3 88.8262 21.3ZM105.326 21.45C104.126 21.45 103.056 21.25 102.116 20.85C101.176 20.45 100.376 19.91 99.7155 19.23C99.0755 18.53 98.5855 17.73 98.2455 16.83C97.9055 15.93 97.7355 14.96 97.7355 13.92C97.7355 12.54 98.0555 11.31 98.6955 10.23C99.3355 9.15 100.216 8.3 101.336 7.68C102.476 7.04 103.776 6.72 105.236 6.72C106.236 6.72 107.126 6.88 107.906 7.2C108.706 7.5 109.386 7.91 109.946 8.43C110.506 8.95 110.936 9.53 111.236 10.17C111.536 10.81 111.686 11.45 111.686 12.09C111.686 13.11 111.446 13.83 110.966 14.25C110.486 14.65 109.896 14.85 109.196 14.85H100.526C100.506 15.73 100.736 16.49 101.216 17.13C101.716 17.75 102.336 18.23 103.076 18.57C103.836 18.91 104.596 19.08 105.356 19.08C105.916 19.08 106.396 19.05 106.796 18.99C107.196 18.93 107.546 18.85 107.846 18.75C108.146 18.65 108.406 18.55 108.626 18.45C108.846 18.35 109.036 18.25 109.196 18.15C109.376 18.05 109.546 17.98 109.706 17.94C109.886 17.9 110.056 17.92 110.216 18C110.396 18.06 110.536 18.19 110.636 18.39C110.756 18.55 110.836 18.7 110.876 18.84C110.916 18.98 110.936 19.13 110.936 19.29C110.936 19.57 110.696 19.88 110.216 20.22C109.736 20.56 109.066 20.85 108.206 21.09C107.366 21.33 106.406 21.45 105.326 21.45ZM100.526 13.08H108.056C108.436 13.08 108.716 13.03 108.896 12.93C109.096 12.83 109.196 12.56 109.196 12.12C109.196 11.56 109.026 11.06 108.686 10.62C108.346 10.16 107.876 9.79 107.276 9.51C106.696 9.23 106.026 9.09 105.266 9.09C104.386 9.09 103.576 9.27 102.836 9.63C102.116 9.97 101.546 10.44 101.126 11.04C100.706 11.64 100.506 12.32 100.526 13.08Z" fill="white"/>
</svg>
