<svg width="7" height="12" viewBox="0 0 7 12" fill="none" xmlns="http://www.w3.org/2000/svg">
<path d="M1.67505 0.274903L6.27505 4.8749C6.37505 4.9749 6.44572 5.08324 6.48705 5.1999C6.52905 5.31657 6.55005 5.44157 6.55005 5.5749C6.55005 5.70824 6.52905 5.83324 6.48705 5.9499C6.44572 6.06657 6.37505 6.1749 6.27505 6.2749L1.67505 10.8749C1.49172 11.0582 1.25838 11.1499 0.975049 11.1499C0.691716 11.1499 0.458383 11.0582 0.275049 10.8749C0.0917158 10.6916 4.86374e-05 10.4582 4.86374e-05 10.1749C4.86374e-05 9.89157 0.0917158 9.65824 0.275049 9.4749L4.17505 5.5749L0.275049 1.6749C0.0917158 1.49157 4.86374e-05 1.25824 4.86374e-05 0.974902C4.86374e-05 0.691568 0.0917158 0.458237 0.275049 0.274903C0.458383 0.0915699 0.691716 -9.82285e-05 0.975049 -9.82285e-05C1.25838 -9.82285e-05 1.49172 0.0915699 1.67505 0.274903Z" fill="white"/>
</svg>
