<svg width="23" height="23" viewBox="0 0 23 23" fill="none" xmlns="http://www.w3.org/2000/svg">
<path d="M17.8349 5.03934C16.7505 3.18047 15.2662 2.15625 13.6562 2.15625H9.34375C7.73375 2.15625 6.24953 3.18047 5.16512 5.03934C4.15168 6.77602 3.59375 9.07422 3.59375 11.5C3.59375 13.9258 4.15168 16.224 5.16512 17.9607C6.24953 19.8195 7.73375 20.8438 9.34375 20.8438H13.6562C15.2662 20.8438 16.7505 19.8195 17.8349 17.9607C18.8483 16.224 19.4062 13.9258 19.4062 11.5C19.4062 9.07422 18.8483 6.77602 17.8349 5.03934ZM17.9499 10.7812H15.0749C15.0187 9.30634 14.7251 7.85014 14.2052 6.46875H16.9535C17.5034 7.67086 17.8663 9.16406 17.9499 10.7812ZM16.0991 5.03125H13.5179C13.2177 4.51044 12.8557 4.02778 12.4398 3.59375H13.6562C14.5547 3.59375 15.3992 4.13281 16.0991 5.03125ZM5.03125 11.5C5.03125 7.21445 7.00781 3.59375 9.34375 3.59375C11.6797 3.59375 13.6562 7.21445 13.6562 11.5C13.6562 15.7855 11.6797 19.4062 9.34375 19.4062C7.00781 19.4062 5.03125 15.7855 5.03125 11.5ZM13.6562 19.4062H12.4425C12.8584 18.9722 13.2204 18.4896 13.5206 17.9688H16.1018C15.3992 18.8672 14.5547 19.4062 13.6562 19.4062ZM16.9535 16.5312H14.2061C14.726 15.1499 15.0196 13.6937 15.0758 12.2188H17.9508C17.8663 13.8359 17.5034 15.3291 16.9535 16.5312Z" fill="#FFB800"/>
</svg>
