<svg width="44" height="46" viewBox="0 0 44 46" fill="none" xmlns="http://www.w3.org/2000/svg">
<g clip-path="url(#clip0_337_987)">
<path d="M7.33335 11.4999H3.66669V38.3333C3.66669 40.4416 5.31669 42.1666 7.33335 42.1666H33V38.3333H7.33335V11.4999ZM36.6667 3.83325H14.6667C12.65 3.83325 11 5.55825 11 7.66659V30.6666C11 32.7749 12.65 34.4999 14.6667 34.4999H36.6667C38.6834 34.4999 40.3334 32.7749 40.3334 30.6666V7.66659C40.3334 5.55825 38.6834 3.83325 36.6667 3.83325ZM34.8334 21.0833H27.5V28.7499H23.8334V21.0833H16.5V17.2499H23.8334V9.58325H27.5V17.2499H34.8334V21.0833Z" fill="#0054BA"/>
</g>
<defs>
<clipPath id="clip0_337_987">
<rect width="44" height="46" fill="white"/>
</clipPath>
</defs>
</svg>
